<svg width="1440" height="1024" viewBox="0 0 1440 1024" fill="none" xmlns="http://www.w3.org/2000/svg">
<g clip-path="url(#clip0_1_43)">
<rect width="1440" height="1024" fill="#F5F2EA"/>
<g clip-path="url(#clip1_1_43)">
<path fill-rule="evenodd" clip-rule="evenodd" d="M686.562 660.938C735.005 702.265 807.889 700.038 853.696 654.254C899.503 608.47 901.732 535.623 860.383 487.205L686.562 660.938Z" fill="url(#paint0_linear_1_43)"/>
<path d="M912.873 521.072H1079.56V686.462H912.873V521.072ZM836.972 333.793L900.639 397.428L837.832 460.2L774.166 396.566L836.972 333.793Z" fill="#906632"/>
<path d="M997.436 521.072C1042.79 521.072 1079.56 484.321 1079.56 438.986C1079.56 393.65 1042.79 356.899 997.436 356.899C952.078 356.899 915.308 393.65 915.308 438.986C915.308 484.321 952.078 521.072 997.436 521.072Z" fill="#FDC886"/>
<path d="M864.812 314.334C893.371 314.334 916.523 291.195 916.523 262.651C916.523 234.106 893.371 210.967 864.812 210.967C836.254 210.967 813.102 234.106 813.102 262.651C813.102 291.195 836.254 314.334 864.812 314.334Z" fill="#FDC886"/>
<path d="M744.965 378.788C767.14 378.788 785.117 360.82 785.117 338.656C785.117 316.493 767.14 298.525 744.965 298.525C722.79 298.525 704.813 316.493 704.813 338.656C704.813 360.82 722.79 378.788 744.965 378.788Z" fill="#F8AE9D"/>
<path d="M735.231 483.373C752.031 483.373 765.65 469.762 765.65 452.971C765.65 436.18 752.031 422.568 735.231 422.568C718.432 422.568 704.813 436.18 704.813 452.971C704.813 469.762 718.432 483.373 735.231 483.373Z" fill="url(#paint1_linear_1_43)"/>
<path d="M1069.91 177.771L1126.19 387.687L916.162 331.441L1069.91 177.771Z" fill="#F8AE9D"/>
<path d="M591.594 474.796L712.351 507.136L623.95 595.492L591.594 474.796Z" fill="#FDC886"/>
<path d="M1243.46 273.685C1244.16 276.464 1243.24 279.353 1241.71 281.78C1240.64 283.494 1239.14 281.601 1236.94 281.298C1233.55 280.822 1231.41 277.236 1230.67 268.497C1230.33 262.114 1230.49 258.93 1230.85 258.372C1232.12 256.377 1235.37 255.71 1237.94 255.903" fill="#906632"/>
<path fill-rule="evenodd" clip-rule="evenodd" d="M1237.31 653.511C1237.31 653.511 1237.51 666.636 1229.41 671.297C1221.3 675.959 1208.75 684.621 1208.75 684.621L1256.51 686.23L1255.15 653.394L1237.31 653.511Z" fill="#F8AE9D"/>
<path fill-rule="evenodd" clip-rule="evenodd" d="M1258.18 667.973L1258.96 689.263H1247.86L1247.1 686.521C1247.1 686.521 1242.92 686.351 1240.51 687.535C1237.96 688.788 1237.62 689.396 1237.62 689.396L1202.43 689.469C1202.43 689.469 1200.69 682.588 1211.42 677.611C1222.14 672.632 1229.96 665.567 1231.44 664.844C1232.93 664.116 1235.95 663.704 1238.07 665.416C1240.19 667.126 1241.87 671.626 1246.69 671.767C1252.88 671.949 1256.44 664.373 1258.18 667.973ZM1271.9 439.328C1271.9 439.328 1258.86 549.889 1258.45 557.575C1258.05 565.261 1262.64 578.524 1262.55 592.9C1262.46 607.276 1260.87 657.944 1260.87 657.944L1232.12 658.413C1232.12 658.413 1220.03 566.852 1219.9 553.122C1219.77 539.392 1218.66 440.65 1218.66 440.65L1271.9 439.328Z" fill="#906632"/>
<path fill-rule="evenodd" clip-rule="evenodd" d="M1307.07 651.205L1312.67 685.222L1292.01 685.119L1291.36 650.672L1307.07 651.205Z" fill="#F8AE9D"/>
<path fill-rule="evenodd" clip-rule="evenodd" d="M1310.24 666.125C1310.95 666.28 1311.59 666.667 1312.06 667.225C1312.52 667.784 1312.79 668.482 1312.81 669.208L1313.01 675.246C1315.96 678.53 1317.34 688.077 1317.46 688.95C1317.47 688.995 1317.47 689.04 1317.47 689.086C1317.16 693.743 1286.59 693.661 1284.11 689.243C1284.04 689.095 1284.01 688.925 1284.05 688.762C1284.32 687.089 1286 677.518 1289.29 674.941L1289.31 668.968C1289.31 668.252 1289.55 667.556 1289.99 666.989C1290.43 666.421 1291.04 666.013 1291.73 665.827L1295.76 664.744C1298.78 660.33 1302.89 660.485 1306.42 665.296L1310.24 666.125ZM1296.92 440.37C1296.92 440.37 1306.13 515.801 1306.01 530.247C1305.88 544.692 1303.17 551.036 1307.03 561.399C1310.88 571.762 1314.17 654.475 1314.17 654.475L1285.66 656.848C1285.66 656.848 1267.45 568.341 1265.47 556.07C1263.49 543.799 1239.02 439.328 1239.02 439.328L1296.92 440.37Z" fill="#906632"/>
<path fill-rule="evenodd" clip-rule="evenodd" d="M1154.78 304.743C1154.78 304.743 1157.16 291.486 1156.3 288.802C1155.57 286.482 1148.67 283.136 1148.67 283.136C1148.67 283.136 1136.65 264.163 1134.02 266.095C1131.88 267.661 1140.28 281.649 1140.28 281.649C1140.28 281.649 1132.62 289.678 1132.73 293.268C1132.83 296.857 1145.22 308.094 1145.22 308.094L1154.78 304.743ZM1278.29 307.858C1278.29 307.858 1270.37 306.001 1270.1 293.04C1269.82 280.079 1270.02 275.655 1270.02 275.655L1251.25 275.341C1251.25 275.341 1251.06 289.785 1251.06 295.01C1251.05 306.384 1242.6 309.458 1242.6 309.458C1242.6 309.458 1243.3 321.895 1259.1 322.783C1271.43 323.476 1278.29 307.858 1278.29 307.858Z" fill="#F8AE9D"/>
<path fill-rule="evenodd" clip-rule="evenodd" d="M1271.74 269.103C1279.51 268.803 1278.25 280.181 1270.17 280.166C1270.17 280.166 1261.49 297.613 1247.86 297.659C1241.29 297.681 1239.15 291.835 1237.18 287.731C1235.21 283.628 1233.77 277.49 1233.65 273.732C1233.52 269.725 1233.5 256.56 1233.5 256.56L1272.04 256.543L1271.74 269.103Z" fill="#F8AE9D"/>
<path fill-rule="evenodd" clip-rule="evenodd" d="M1242.31 308.686C1242.31 308.686 1222.09 314.992 1217.22 322.525C1201.53 336.302 1181.91 355.223 1181.91 355.223C1181.91 355.223 1163.22 308.339 1157.11 302.993C1152.93 299.335 1144.6 303.858 1143.04 308.505C1141.05 314.476 1153.85 349.491 1159.9 366.028L1159.9 366.031C1161.07 369.234 1161.99 371.743 1162.49 373.214C1166.18 383.904 1175.15 390.036 1186.07 383.241C1190.47 380.502 1203.56 371.527 1214.73 363.391C1214.91 371.938 1215.2 380.944 1215.48 389.497V389.5C1216.16 410.282 1216.75 428.392 1215.33 430.745C1208.28 442.409 1217.65 450.416 1248.67 453.358C1279.69 456.3 1307.2 453.89 1302.21 438.325C1301.17 435.081 1301.18 428.1 1301.7 419.03C1304.74 418.868 1307.78 418.668 1310.81 418.43C1323.75 417.41 1333.33 411.851 1334.66 397.413C1335.6 387.303 1316.33 339.836 1309.1 324.228C1307.41 320.577 1304.8 318.304 1301.83 317.171C1301.15 316.401 1300.37 315.861 1299.5 315.574C1294.19 313.825 1275.15 305.833 1275.15 305.833L1252.51 320.639L1242.31 308.686ZM1303.8 392.239L1303.85 392.371L1303.79 392.379L1303.8 392.239Z" fill="#FDC886"/>
<path fill-rule="evenodd" clip-rule="evenodd" d="M1253.56 404.766C1253.56 404.766 1246.65 403.379 1243.83 401.162C1241 398.944 1232.44 397.376 1232.44 397.376L1235.18 403.139C1235.18 403.139 1214.2 401.171 1213.71 403.239C1213.21 405.308 1219.28 407.557 1219.28 407.557C1219.28 407.557 1222.27 413.143 1225.17 416.381C1227.91 419.445 1241.52 419.08 1246.3 417.168C1250.42 415.516 1254.91 416.342 1254.91 416.342L1253.56 404.766Z" fill="#F8AE9D"/>
<path d="M1269.62 257.079C1268.49 258.566 1266.48 258.894 1264.83 259.189C1262.62 259.583 1261.52 260.406 1260.37 262.615C1259.64 264.026 1258.91 265.572 1257.6 266.336C1256.54 266.961 1256.57 265.379 1256.41 264.156C1256.4 264.041 1256.38 263.928 1256.35 263.817C1256.09 262.839 1255.05 263.003 1254.75 263.967C1254.48 264.841 1253.89 265.58 1253.13 265.992C1253.01 266.059 1252.88 266.118 1252.75 266.092C1252.57 266.067 1252.44 265.899 1252.32 265.748C1252.08 265.433 1251.84 265.035 1251.6 264.613C1250.79 263.217 1249.24 263.706 1248.33 265.043C1247.76 265.874 1247.09 266.731 1246.16 266.924C1245.86 266.991 1245.48 266.941 1245.34 266.647C1245.17 266.286 1245.44 265.924 1245.4 265.555C1245.36 265.21 1245.21 265.059 1245.05 264.765C1244.42 263.631 1242.97 263.59 1242.08 264.534C1241.46 265.192 1240.82 265.824 1240.15 266.428C1239.86 266.681 1239.45 266.932 1239.16 266.681C1239.01 266.546 1238.97 266.319 1238.94 266.101C1238.78 265.034 1238.63 263.967 1238.46 262.901C1238.37 262.304 1238.06 261.523 1237.52 261.674C1237.26 261.749 1237.11 262.027 1236.96 262.279C1236.78 262.598 1233.63 266.236 1233.57 265.958C1233.08 263.891 1232.07 262.011 1231.58 259.944C1228.4 246.648 1242.5 235.955 1253.27 235.896C1255.67 235.88 1257.86 235.919 1260.18 236.482C1262.66 237.087 1265.28 238.047 1267.53 239.399C1270.68 241.289 1273.07 244.725 1272.46 248.823" fill="#906632"/>
<path d="M1260.87 252.782C1259.35 254.519 1258.94 256.961 1258.8 259.268C1258.59 262.747 1258.88 266.363 1260.47 269.452C1260.93 270.331 1261.26 274.683 1261.96 274.443C1262.18 274.368 1262.15 270.993 1262.73 269.174C1263.64 266.355 1267.83 265.281 1269.71 267.062C1272.72 269.896 1270.95 273.338 1269.96 275.48C1269.36 276.773 1268.41 278.224 1268.25 279.59C1268.05 281.343 1267.99 287.724 1269.12 289.211C1270.07 290.459 1271.07 284.431 1271.93 283.244C1278.26 274.398 1284.34 251.873 1273.52 246.987C1271.88 246.243 1266.8 245.86 1265.26 246.807" fill="#906632"/>
<path d="M758.296 543.824C762.486 539.636 762.486 532.845 758.296 528.656C754.105 524.468 747.311 524.468 743.12 528.656L708.751 563.007C704.56 567.196 704.56 573.987 708.751 578.175C712.942 582.364 719.736 582.364 723.927 578.176L758.296 543.824Z" fill="#E1E4E5"/>
<path d="M695.028 406.294C698.302 403.021 698.302 397.715 695.028 394.443C691.754 391.17 686.445 391.17 683.171 394.443L660.856 416.747C657.582 420.019 657.581 425.325 660.856 428.598C664.13 431.87 669.438 431.87 672.713 428.597L695.028 406.294Z" fill="#E1E4E5"/>
<path d="M790.977 243.864C794.125 240.718 794.125 235.618 790.978 232.472C787.83 229.326 782.727 229.326 779.58 232.472L756.749 255.291C753.601 258.437 753.601 263.538 756.748 266.684C759.896 269.829 764.999 269.829 768.147 266.683L790.977 243.864Z" fill="#E1E4E5"/>
<path d="M988.859 214.709L988.858 214.708C985.447 211.298 979.916 211.298 976.505 214.708L954.335 236.867C950.923 240.276 950.923 245.804 954.335 249.214L954.335 249.214C957.747 252.624 963.277 252.624 966.689 249.214L988.859 227.055C992.27 223.646 992.27 218.118 988.859 214.709Z" fill="#E1E4E5"/>
<path d="M880.182 672.342C886.149 670.929 892.46 675.986 892.46 675.986C892.46 675.986 889.093 683.333 883.123 684.741C877.156 686.155 870.847 681.101 870.847 681.101C870.847 681.101 874.215 673.754 880.182 672.342Z" fill="url(#paint2_linear_1_43)"/>
<path d="M913.658 360.606C908.368 356.966 900.289 359.51 900.289 359.51C900.289 359.51 900.788 367.959 906.081 371.596C911.37 375.238 919.446 372.695 919.446 372.695C919.446 372.695 918.947 364.248 913.658 360.606Z" fill="url(#paint3_linear_1_43)"/>
<path d="M1150.57 479.098C1142.58 470.972 1127.64 472.685 1127.64 472.685C1127.64 472.685 1125.66 487.574 1133.66 495.696C1141.65 503.822 1156.58 502.114 1156.58 502.114C1156.58 502.114 1158.56 487.225 1150.57 479.098Z" fill="url(#paint4_linear_1_43)"/>
<path d="M665.496 377.836C674.02 377.836 680.931 371.244 680.931 363.111C680.931 354.979 674.02 348.386 665.496 348.386C656.971 348.386 650.061 354.979 650.061 363.111C650.061 371.244 656.971 377.836 665.496 377.836Z" fill="#FDC886"/>
<path d="M1127.85 235.739C1136.37 235.739 1143.28 228.832 1143.28 220.312C1143.28 211.792 1136.37 204.885 1127.85 204.885C1119.33 204.885 1112.41 211.792 1112.41 220.312C1112.41 228.832 1119.33 235.739 1127.85 235.739Z" fill="#FDC886"/>
<path d="M664.092 598.903C671.842 598.903 678.124 605.496 678.124 613.628C678.124 621.761 671.842 628.353 664.092 628.353C656.343 628.353 650.061 621.761 650.061 613.628C650.061 605.496 656.343 598.903 664.092 598.903Z" fill="#FDC886"/>
<path d="M1305.64 405.542C1312.22 405.542 1317.56 410.879 1317.56 417.463C1317.56 424.046 1312.22 429.383 1305.64 429.383C1299.05 429.383 1293.71 424.046 1293.71 417.463C1293.71 410.879 1299.05 405.542 1305.64 405.542Z" fill="#FDC886"/>
<path d="M900.539 338.656C904.479 338.656 907.672 341.849 907.672 345.786C907.672 349.724 904.479 352.916 900.539 352.916C896.599 352.916 893.406 349.724 893.406 345.786C893.406 341.849 896.599 338.656 900.539 338.656Z" fill="white"/>
<path d="M1003.11 193.941C1007.26 193.941 1010.62 197.298 1010.62 201.439C1010.62 205.581 1007.26 208.938 1003.11 208.938C998.97 208.938 995.611 205.581 995.611 201.439C995.611 197.298 998.97 193.941 1003.11 193.941Z" fill="#E1E4E5"/>
<path d="M808.022 473.173C810.063 473.173 811.718 474.828 811.718 476.868C811.718 478.909 810.063 480.563 808.022 480.563C805.98 480.563 804.325 478.909 804.325 476.868C804.325 474.828 805.98 473.173 808.022 473.173Z" fill="#E1E4E5"/>
<path d="M886.881 675.517C889.997 675.517 892.524 678.042 892.524 681.157C892.524 684.272 889.997 686.797 886.881 686.797C883.765 686.797 881.238 684.272 881.238 681.157C881.238 678.042 883.765 675.517 886.881 675.517Z" fill="white"/>
<path d="M1095.38 427.593C1095.38 423.474 1098.72 420.136 1102.84 420.136C1106.96 420.136 1110.3 423.474 1110.3 427.593C1110.3 431.711 1106.96 435.05 1102.84 435.05C1098.72 435.05 1095.38 431.711 1095.38 427.593Z" fill="#E1E4E5"/>
<path d="M1128.65 568.501C1132.91 568.501 1136.37 571.954 1136.37 576.214C1136.37 580.473 1132.91 583.927 1128.65 583.927C1124.39 583.927 1120.93 580.473 1120.93 576.214C1120.93 571.954 1124.39 568.501 1128.65 568.501Z" fill="#E1E4E5"/>
<path d="M598.569 427.202C603.731 421.955 611.275 421.004 615.419 425.077C619.563 429.15 618.739 436.705 613.577 441.952C608.415 447.199 600.871 448.15 596.727 444.077C592.582 440.004 593.407 432.448 598.569 427.202Z" fill="#E1E4E5"/>
<path d="M888.093 474.088C886.995 469.993 889.426 465.783 893.524 464.686C897.621 463.588 901.833 466.019 902.931 470.114C904.029 474.21 901.597 478.42 897.5 479.517C893.402 480.614 889.191 478.184 888.093 474.088Z" fill="white"/>
<path d="M792.319 524.829H792.22C791.635 516.544 785.47 516.416 785.47 516.416C785.47 516.416 792.267 516.283 792.267 506.71C792.267 516.283 799.065 516.416 799.065 516.416C799.065 516.416 792.903 516.544 792.319 524.829ZM1118.08 262.747H1117.96C1117.28 252.835 1110.04 252.683 1110.04 252.683C1110.04 252.683 1118.02 252.524 1118.02 241.07C1118.02 252.524 1125.99 252.683 1125.99 252.683C1125.99 252.683 1118.76 252.835 1118.08 262.747Z" fill="#E1E4E5"/>
</g>
<path d="M920.393 1331.27C1072.7 1290.46 1163.08 1133.91 1122.27 981.607C1081.46 829.303 924.912 738.918 772.607 779.728C620.303 820.538 529.918 977.088 570.728 1129.39C611.538 1281.7 768.088 1372.08 920.393 1331.27Z" fill="#FDC886"/>
<path d="M478.461 69.4602C481.493 66.4298 481.493 61.5168 478.461 58.4866C475.43 55.4564 470.514 55.4566 467.482 58.487L445.49 80.4675C442.458 83.4979 442.458 88.4109 445.49 91.4411C448.521 94.4713 453.437 94.4711 456.469 91.4408L478.461 69.4602Z" fill="#E1E4E5"/>
<path d="M186.066 337.807C189.49 335.228 190.174 330.362 187.593 326.94C185.012 323.517 180.144 322.834 176.72 325.413L151.885 344.121C148.461 346.7 147.777 351.566 150.358 354.988C152.939 358.41 157.807 359.094 161.231 356.515L186.066 337.807Z" fill="#E1E4E5"/>
<path fill-rule="evenodd" clip-rule="evenodd" d="M146.659 667.947C91.2282 726.619 89.2008 819.158 144 880.258C198.8 941.357 290.685 949.006 354.603 899.795L146.659 667.947Z" fill="url(#paint5_linear_1_43)"/>
<path d="M308.677 666.312C330.037 666.312 347.353 649.005 347.353 627.656C347.353 606.307 330.037 589 308.677 589C287.316 589 270 606.307 270 627.656C270 649.005 287.316 666.312 308.677 666.312Z" fill="#F8AE9D"/>
<path d="M329.813 364.615C327.672 360.902 322.926 359.629 319.214 361.772C315.502 363.915 314.229 368.663 316.37 372.377L331.903 399.312C334.044 403.026 338.789 404.299 342.501 402.156C346.214 400.013 347.487 395.265 345.346 391.551L329.813 364.615Z" fill="#E1E4E5"/>
<path d="M162.003 553.06C166.975 548.006 174.242 547.089 178.234 551.013C182.226 554.936 181.432 562.214 176.46 567.268C171.487 572.321 164.22 573.238 160.228 569.314C156.236 565.391 157.031 558.113 162.003 553.06Z" fill="#E1E4E5"/>
<path d="M110 274C225.98 274 320 179.98 320 64C320 -51.9798 225.98 -146 110 -146C-5.97976 -146 -100 -51.9798 -100 64C-100 179.98 -5.97976 274 110 274Z" fill="#FDC886"/>
</g>
<defs>
<linearGradient id="paint0_linear_1_43" x1="902.379" y1="695.504" x2="688.854" y2="484.152" gradientUnits="userSpaceOnUse">
<stop stop-color="white"/>
<stop offset="1" stop-color="#EEEEEE"/>
</linearGradient>
<linearGradient id="paint1_linear_1_43" x1="736.528" y1="517.464" x2="734.654" y2="356.422" gradientUnits="userSpaceOnUse">
<stop stop-color="white"/>
<stop offset="1" stop-color="#EEEEEE"/>
</linearGradient>
<linearGradient id="paint2_linear_1_43" x1="902.652" y1="668.829" x2="850.425" y2="693.515" gradientUnits="userSpaceOnUse">
<stop stop-color="white"/>
<stop offset="1" stop-color="#EEEEEE"/>
</linearGradient>
<linearGradient id="paint3_linear_1_43" x1="893.054" y1="348.659" x2="934.666" y2="392.56" gradientUnits="userSpaceOnUse">
<stop stop-color="white"/>
<stop offset="1" stop-color="#EEEEEE"/>
</linearGradient>
<linearGradient id="paint4_linear_1_43" x1="1118.69" y1="451.34" x2="1176.4" y2="541.852" gradientUnits="userSpaceOnUse">
<stop stop-color="white"/>
<stop offset="1" stop-color="#EEEEEE"/>
</linearGradient>
<linearGradient id="paint5_linear_1_43" x1="88.6515" y1="939.24" x2="370.718" y2="683.508" gradientUnits="userSpaceOnUse">
<stop stop-color="white"/>
<stop offset="1" stop-color="#EEEEEE"/>
</linearGradient>
<clipPath id="clip0_1_43">
<rect width="1440" height="1024" fill="white"/>
</clipPath>
<clipPath id="clip1_1_43">
<rect width="980" height="653" fill="white" transform="translate(448 117)"/>
</clipPath>
</defs>
</svg>
